<?xml version="1.0" encoding="UTF-8"?>
<!DOCTYPE svg PUBLIC "-//W3C//DTD SVG 1.1//EN" "http://www.w3.org/Graphics/SVG/1.1/DTD/svg11.dtd">
<svg xmlns="http://www.w3.org/2000/svg" version="1.1" width="64px" height="58px" style="shape-rendering:geometricPrecision; text-rendering:geometricPrecision; image-rendering:optimizeQuality; fill-rule:evenodd; clip-rule:evenodd" xmlns:xlink="http://www.w3.org/1999/xlink">
<g><path style="opacity:0.947" fill="#2a2928" d="M 0.5,1.5 C 7.16667,1.5 13.8333,1.5 20.5,1.5C 20.3335,12.1719 20.5002,22.8385 21,33.5C 23.9804,37.6475 27.4804,41.3141 31.5,44.5C 35.9027,41.2656 39.4027,37.2656 42,32.5C 42.4998,22.172 42.6665,11.8387 42.5,1.5C 49.1667,1.5 55.8333,1.5 62.5,1.5C 62.6665,11.8387 62.4998,22.172 62,32.5C 60.4,42.097 55.5666,49.597 47.5,55C 42.5381,58.3145 37.2048,60.8145 31.5,62.5C 19.2901,59.1162 9.79006,52.1162 3,41.5C 2.17786,39.2115 1.5112,36.8782 1,34.5C 0.500153,23.505 0.333486,12.505 0.5,1.5 Z"/></g>
</svg>
